# xmcd
#
# Track frame offsets:
#	150
#	18327
#	44855
#	77085
#
# Disc length: 1278
#
# Revision: 5
# Processed by: cddbd v1.5.1PL0 Copyright (c) Steve Scherf et al.
# Submitted via: ExactAudioCopy v0.90b4
# Normalized: r4:DSETVAR1
#
DISCID=2c04fc04
DTITLE=Various Artist - Give Me a Little More Time
DYEAR=1996
DGENRE=Pop
TTITLE0=Gabrielle - Give Me a Little More Time (Edit)
TTITLE1=Gabrielle featuring OC - Give Me a Little More Time (Buckwild Remix)
TTITLE2=Gabrielle - Give Me a Little More Time (Talvin Singh)
TTITLE3=Gabrielle - So Glad (Delta 70 Classic)
EXTD=YEAR: 1996
EXTT0=
EXTT1=
EXTT2=
EXTT3=
PLAYORDER=
